# xmcd CD database file generated by Grip 3.3.1
# 
# Track frame offsets:
#       150
#       16950
#       34593
#       47818
#       64058
#       78675
#       95610
#       110135
#       125113
#       142425
#       158525
#       175623
# 
# Disc length: 2513 seconds
# 
# Revision: 3
# Processed by: cddbd v1.5.2PL0 Copyright (c) Steve Scherf et al.
# Submitted via: Grip 3.3.1
# 
DISCID=a809cf0c
DTITLE=Crash Test Dummies - A Worm's Life
DYEAR=1996
DGENRE=Alternative
TTITLE0=Overachievers
TTITLE1=He Liked To Feel It
TTITLE2=A Worm's Life
TTITLE3=Our Driver Gestures
TTITLE4=My Enemies
TTITLE5=There Are Many Dangers
TTITLE6=I'm Outlived By That Thing?
TTITLE7=All Of This Ugly
TTITLE8=An Old Scab
TTITLE9=My Own Sunrise
TTITLE10=I'm A Dog
TTITLE11=Swatting Flies
EXTD=
EXTT0=
EXTT1=
EXTT2=
EXTT3=
EXTT4=
EXTT5=
EXTT6=
EXTT7=
EXTT8=
EXTT9=
EXTT10=
EXTT11=
PLAYORDER=
